<svg version="1.1" id="Layer_1" xmlns="http://www.w3.org/2000/svg" xmlns:xlink="http://www.w3.org/1999/xlink" x="0px" y="0px"
	 width="100%" viewBox="0 0 800 592" enable-background="new 0 0 800 592" xml:space="preserve">
<path fill="#000000" opacity="1.000000" stroke="none" 
	d="
M490.062988,206.948730 
	C499.457092,200.249100 509.000305,203.715164 511.711548,214.742279 
	C512.534546,218.089706 513.347534,220.272903 517.337708,219.869522 
	C520.138977,219.586334 520.990479,221.626938 521.226929,224.018082 
	C521.586121,227.650391 522.139282,231.275314 522.263550,234.915207 
	C522.357727,237.674942 523.430176,238.848389 526.169495,238.773621 
	C529.330017,238.687347 532.495056,238.769043 535.658142,238.767654 
	C541.919189,238.764893 545.074219,241.188843 546.241394,247.058273 
	C548.246582,257.141296 550.239014,267.227325 552.141418,277.330078 
	C552.920044,281.464691 552.609131,285.266632 547.888489,287.147980 
	C545.931091,285.458893 547.137756,283.257202 546.542358,281.389618 
	C545.528931,283.347961 547.214478,285.985748 545.227661,287.504944 
	C543.393433,288.907440 541.040100,288.221375 538.918762,288.228973 
	C525.433655,288.277313 511.947754,288.183014 498.463470,288.296936 
	C494.850586,288.327484 492.135254,288.011993 492.651001,283.320160 
	C492.926788,280.811005 491.253296,280.383087 489.076263,280.520813 
	C484.598511,280.804047 480.092560,280.721466 475.629364,281.129700 
	C471.885925,281.472076 470.355896,280.069122 470.668549,276.373322 
	C471.410370,267.604797 472.011322,258.823456 472.840607,250.063522 
	C473.654236,241.469116 474.858185,232.908600 475.523865,224.304825 
	C475.788757,220.880951 477.026611,219.418457 480.381836,219.727509 
	C483.813354,220.043594 485.711121,218.820084 485.766266,215.037003 
	C485.812286,211.883133 487.731384,209.458084 490.062988,206.948730 
M508.335541,214.326691 
	C506.409821,209.691406 503.452057,206.218216 497.974457,206.539673 
	C493.520782,206.801041 490.150208,210.754669 488.888794,215.939529 
	C488.233429,218.633331 489.003540,219.732346 491.675446,219.730072 
	C496.001617,219.726364 500.329346,219.669937 504.653412,219.767990 
	C508.059692,219.845230 509.106354,218.168594 508.335541,214.326691 
M508.330109,251.287659 
	C508.490997,253.920547 509.137390,256.379425 510.872009,258.492340 
	C509.743561,254.321777 508.232483,250.250992 510.370331,245.946991 
	C510.858521,244.964157 510.248444,243.865540 508.965576,243.920074 
	C507.713837,243.973328 507.410431,245.000717 507.565674,246.096359 
	C507.774048,247.566650 508.055664,249.026581 508.330109,251.287659 
M528.548828,249.059616 
	C528.548828,250.998688 528.548828,252.937744 528.548828,254.876816 
	C529.488281,251.814514 530.005005,248.758133 530.420044,245.688019 
	C530.542175,244.784271 530.063293,244.024048 529.034241,244.047592 
	C528.092102,244.069122 527.433289,244.713394 527.564697,245.638123 
	C527.700500,246.593475 528.170837,247.501297 528.548828,249.059616 
z"/>
<path fill="#000000" opacity="1.000000" stroke="none" 
	d="
M562.332825,316.053528 
	C562.509644,318.270935 561.957703,320.138458 563.368347,322.823212 
	C569.333313,319.531189 574.476440,315.334320 579.246033,310.601074 
	C579.716064,310.134644 580.125671,309.595703 580.501953,309.048248 
	C582.085938,306.743622 584.051575,305.981873 586.403259,307.823669 
	C588.840515,309.732422 587.531494,311.668823 586.115906,313.418579 
	C581.873230,318.662750 576.819946,323.317291 570.894226,326.182312 
	C563.319275,329.844788 562.278931,335.895325 562.355774,342.919769 
	C562.465088,352.919159 562.040100,362.886566 560.350586,372.750427 
	C559.128113,379.887604 556.983337,380.977936 550.541382,378.115326 
	C544.123535,375.263428 537.905457,372.054260 532.885376,367.004181 
	C526.317444,360.396942 526.029236,353.195282 532.108276,346.131165 
	C537.494629,339.871948 544.143616,335.083344 551.213074,330.982269 
	C554.889099,328.849762 556.571777,326.203064 555.974487,322.092682 
	C555.436768,318.392212 556.509888,314.475433 554.599304,310.696747 
	C550.903259,311.392578 548.844238,314.132141 546.478271,316.334686 
	C540.041016,322.327118 533.332214,326.366302 524.829407,319.999390 
	C523.296082,318.851227 522.015686,319.861633 520.664124,320.452698 
	C512.430176,324.053558 506.844543,322.409668 501.807709,314.923248 
	C498.869507,310.556030 495.383423,309.951263 492.888367,313.997437 
	C485.985626,325.191223 470.213074,324.748779 463.209778,314.978973 
	C462.930573,314.589478 462.473969,314.327179 461.739532,313.695587 
	C453.172760,321.733459 444.901917,332.622833 431.795898,319.695282 
	C427.873291,321.543854 423.923431,323.573639 419.476013,324.546539 
	C412.788086,326.009552 406.469513,325.350586 400.685638,321.903748 
	C397.725372,320.139587 395.886444,320.663422 393.829163,322.962433 
	C392.847229,324.059784 391.643372,325.072479 390.344177,325.745605 
	C388.352783,326.777435 386.395599,326.391998 385.044006,324.492462 
	C383.732788,322.649628 385.074371,321.407196 386.282623,320.214783 
	C386.875061,319.630127 387.438873,318.979614 388.130005,318.537903 
	C392.501221,315.744080 392.966858,312.314392 389.753021,308.155212 
	C387.464417,308.161469 386.617432,310.162750 385.529114,311.720398 
	C376.006134,325.350311 365.842133,326.198151 353.912048,314.326477 
	C353.697449,314.112915 353.334259,314.048676 352.940002,313.869019 
	C350.830750,314.667633 349.967194,316.833038 348.438477,318.292114 
	C344.654236,321.903961 340.717926,325.208038 335.169403,325.543091 
	C326.201874,326.084564 319.744141,317.101593 323.125977,308.797546 
	C323.790375,307.166138 324.713898,305.743347 326.839172,306.395477 
	C328.713440,306.970581 330.169861,307.996429 330.004059,310.262756 
	C329.968414,310.750061 329.673553,311.217255 329.630463,311.705414 
	C329.388977,314.440765 328.004822,317.705658 330.903229,319.526642 
	C334.004059,321.474792 336.624908,318.941437 338.948944,317.186188 
	C342.963135,314.154358 346.137207,310.266785 349.088257,306.214539 
	C350.299744,304.550995 351.576019,302.955231 353.916809,303.324219 
	C356.249420,303.691925 356.994293,305.490082 357.571930,307.542755 
	C358.763397,311.776672 360.070282,316.092926 365.435883,316.681152 
	C370.834595,317.273010 374.644012,314.666473 377.572571,310.335449 
	C379.240601,307.868561 380.680969,305.210327 383.221313,303.410309 
	C388.961395,299.343018 393.947815,300.803345 396.503052,307.349274 
	C396.735413,307.944550 397.163483,308.463470 397.665710,309.289185 
	C400.843750,307.260498 403.818176,305.200104 406.951721,303.419769 
	C408.955292,302.281372 411.156738,301.224670 413.598724,302.066254 
	C414.881073,302.508209 416.047272,303.272095 416.277161,304.762848 
	C416.542877,306.485962 415.244385,306.857117 413.975433,307.470764 
	C406.585876,311.044159 404.593964,312.640991 402.065674,316.651825 
	C408.030945,321.205902 418.304199,320.618896 425.155975,315.277588 
	C427.663361,313.322968 429.835968,311.034973 431.613708,308.372620 
	C432.700958,306.744324 434.054169,305.602295 436.215912,306.586060 
	C438.305603,307.537018 439.411316,308.929474 438.550232,311.330566 
	C438.383514,311.795471 438.295563,312.303650 438.260529,312.798187 
	C438.098145,315.091644 437.343903,317.743683 439.617493,319.258087 
	C442.065033,320.888397 444.452576,319.374237 446.535706,317.980286 
	C451.036987,314.968109 454.293152,310.722900 457.547333,306.492218 
	C458.864990,304.779144 460.088776,302.726868 462.689850,303.240692 
	C465.157990,303.728210 465.911407,305.716187 466.466064,307.975189 
	C467.589417,312.550476 469.414703,316.586060 475.116364,316.750549 
	C480.055206,316.892975 485.380676,313.313385 487.305939,308.621338 
	C487.936371,307.084869 487.506683,305.710266 487.200317,304.241638 
	C486.833313,302.482361 487.058899,300.771484 489.083801,300.212067 
	C490.734802,299.755981 492.428070,300.684265 492.747192,302.101929 
	C493.675598,306.226593 496.674652,306.136719 499.710510,305.933929 
	C504.222290,305.632599 507.015625,306.825562 507.267242,312.081329 
	C507.468079,316.276825 510.424530,317.745605 514.361206,316.100525 
	C518.009460,314.575867 520.527222,311.666626 522.987671,308.692169 
	C524.600159,306.742767 526.329834,304.710602 529.282593,306.526550 
	C532.040771,308.222870 531.104675,310.396942 530.063782,312.614349 
	C529.417114,313.991974 528.811829,315.532837 530.038635,316.816986 
	C531.540527,318.389008 533.171692,317.306702 534.604675,316.552612 
	C538.185242,314.668396 541.038879,311.844788 543.909119,309.059296 
	C547.317261,305.751740 551.256042,303.430450 556.044312,305.141235 
	C560.726562,306.814178 561.909790,311.117950 562.332825,316.053528 
M555.643005,353.174316 
	C555.643005,347.948761 555.643005,342.723206 555.643005,336.509338 
	C548.599060,341.185944 541.912842,344.839874 537.286926,351.078888 
	C534.992615,354.173248 533.036072,357.655853 535.474487,361.622803 
	C539.427917,368.054382 545.800415,370.787842 552.668152,373.319672 
	C554.916443,366.634979 554.549744,360.259644 555.643005,353.174316 
z"/>
<path fill="#000000" opacity="1.000000" stroke="none" 
	d="
M392.015076,369.046417 
	C368.215027,368.037170 344.887787,367.893799 321.589569,368.478088 
	C299.002319,369.044525 276.360443,369.463287 253.953583,373.119720 
	C251.301605,373.552460 249.811386,374.722534 248.547272,376.846771 
	C243.594208,385.170197 237.970139,393.017273 231.389725,400.138306 
	C227.213303,404.657806 225.405563,404.622162 221.172928,400.279022 
	C209.846893,388.657440 211.774841,379.585968 226.896790,373.424347 
	C231.380600,371.597351 236.029587,370.334412 240.806824,369.555115 
	C243.616470,369.096802 245.513611,367.709320 246.917679,365.071533 
	C268.896637,323.780884 284.848846,280.379700 292.339325,234.107773 
	C293.680634,225.821976 294.701996,217.306885 293.024445,208.778076 
	C292.166656,204.416977 291.336792,200.305939 287.154633,197.763397 
	C286.002594,197.063019 285.337555,195.811127 285.824768,194.303177 
	C290.173096,193.323486 293.921326,195.454651 296.354645,200.847763 
	C300.080872,209.106491 300.554199,217.862289 299.740082,226.765411 
	C295.991669,267.758606 281.972290,305.755615 265.738739,343.090027 
	C262.489624,350.562500 258.754913,357.823669 255.271912,365.195404 
	C255.156738,365.439178 255.345474,365.826508 255.427399,366.384308 
	C260.046722,367.097473 264.651031,365.917572 269.187256,365.483032 
	C306.232849,361.934326 343.358917,362.558105 380.474884,363.068542 
	C406.102997,363.421021 431.738434,363.972260 457.342285,365.085968 
	C473.659271,365.795746 489.973907,365.359619 506.277802,365.996368 
	C506.777100,366.015900 507.289032,365.950012 507.774902,366.036804 
	C510.580078,366.538147 515.008118,365.942261 514.605347,369.902252 
	C514.267517,373.223663 510.373474,371.531189 507.850189,371.495728 
	C493.358917,371.292145 478.862732,371.349274 464.374756,371.024750 
	C440.417877,370.488129 416.465973,369.728455 392.015076,369.046417 
M238.344864,379.193298 
	C239.741287,376.951202 239.048706,375.919678 236.573318,376.677734 
	C232.287811,377.990234 228.010712,379.486969 224.532974,382.454529 
	C219.825623,386.471375 220.004089,391.577515 225.020935,396.007477 
	C230.166504,391.254395 234.041138,385.477142 238.344864,379.193298 
z"/>
<path fill="#000000" opacity="1.000000" stroke="none" 
	d="
M469.304932,398.029266 
	C469.298157,400.668610 469.331360,402.829285 469.266357,404.987000 
	C469.232544,406.108276 469.403381,407.463165 467.981049,407.922882 
	C466.354706,408.448578 465.547638,407.246490 464.848694,406.100952 
	C462.952759,402.993530 461.105286,399.856567 458.909882,396.181000 
	C457.610535,400.286499 459.194214,404.336487 457.641083,407.768982 
	C455.281738,407.985840 455.078339,406.487518 455.049744,405.216614 
	C454.952576,400.901093 454.974335,396.581543 455.036865,392.264740 
	C455.056030,390.942749 455.214325,389.462891 456.926086,389.195038 
	C458.289856,388.981689 459.002960,390.026764 459.612762,391.038300 
	C461.459381,394.101257 463.282135,397.178589 465.367401,400.674835 
	C466.766266,396.600098 464.861481,392.532349 467.441406,388.900879 
	C470.408081,391.673340 468.820526,394.824097 469.304932,398.029266 
z"/>
<path fill="#000000" opacity="1.000000" stroke="none" 
	d="
M368.467957,388.936157 
	C374.201233,392.385223 376.091858,399.007233 373.286957,404.497650 
	C370.626251,409.705811 363.712769,410.450378 360.037781,405.802185 
	C357.089813,402.073486 356.964905,397.834564 358.726898,393.585510 
	C360.444702,389.443085 363.824738,388.206879 368.467957,388.936157 
M368.375427,404.733673 
	C371.326630,402.176147 371.188934,398.785370 370.373230,395.551147 
	C369.586945,392.433319 367.066650,391.168274 364.221802,392.811707 
	C361.056702,394.640106 360.760315,398.058319 361.617310,401.203308 
	C362.386414,404.025818 364.034668,406.457733 368.375427,404.733673 
z"/>
<path fill="#000000" opacity="1.000000" stroke="none" 
	d="
M492.389038,397.794189 
	C495.022827,397.596771 496.873199,398.021240 496.973145,400.753082 
	C497.070251,403.407043 497.391510,406.165222 494.566345,407.860474 
	C491.465881,409.720947 486.578278,408.826355 484.105072,405.915649 
	C480.776672,401.998535 480.849426,394.631073 484.471649,391.193604 
	C487.571991,388.251373 491.171204,387.674744 494.940430,390.027985 
	C495.410553,390.321564 495.619629,391.033112 495.868011,391.422913 
	C494.996674,393.221039 493.775879,392.558228 492.709106,392.335602 
	C489.483856,391.662659 487.050598,392.659576 485.892731,395.811890 
	C484.710144,399.031677 485.085083,402.084351 487.827301,404.449829 
	C489.360046,405.772003 491.185394,406.237274 492.715088,404.535858 
	C494.339111,402.729553 493.138794,401.694885 491.458344,400.706055 
	C489.372101,399.478424 489.896301,398.446442 492.389038,397.794189 
z"/>
<path fill="#000000" opacity="1.000000" stroke="none" 
	d="
M330.760559,396.125183 
	C331.172150,393.457397 329.767303,390.674530 332.744385,389.075653 
	C335.902740,390.844910 332.023346,397.106049 338.364410,396.819427 
	C344.103546,396.560028 339.781860,390.342316 344.582123,389.007599 
	C345.996124,395.362335 345.096741,401.512390 345.070496,407.680756 
	C341.408051,407.940186 341.838043,405.652191 341.823273,404.017456 
	C341.799316,401.370392 340.874603,400.045685 338.030060,400.046387 
	C335.174438,400.047089 334.235443,401.385223 334.271149,404.032654 
	C334.289795,405.415222 334.663513,407.101685 332.183044,408.174469 
	C329.555847,404.569244 331.280365,400.377930 330.760559,396.125183 
z"/>
<path fill="#000000" opacity="1.000000" stroke="none" 
	d="
M314.492493,392.440063 
	C312.673370,392.242828 311.123047,391.767670 309.889740,393.604523 
	C310.173187,396.424286 312.924713,396.569458 314.821075,397.527649 
	C317.422943,398.842377 319.338928,400.622437 318.891541,403.684845 
	C318.417999,406.925934 316.038544,408.587280 312.935852,408.743469 
	C309.998077,408.891327 307.015015,408.568542 305.987823,405.065918 
	C307.222534,403.622589 308.300323,404.271057 309.345764,404.763672 
	C311.264893,405.668030 313.467651,406.453552 314.456421,403.948700 
	C315.490906,401.328064 312.878357,400.749908 311.188080,399.822174 
	C311.042267,399.742096 310.894440,399.663940 310.741882,399.598053 
	C308.157990,398.482147 305.988434,396.939087 306.098206,393.782196 
	C306.182404,391.361511 307.671661,389.655151 309.944733,389.092529 
	C312.888702,388.363831 315.879669,388.178589 317.744934,391.287262 
	C317.174561,393.058990 316.033081,392.847321 314.492493,392.440063 
z"/>
<path fill="#000000" opacity="1.000000" stroke="none" 
	d="
M396.226440,389.336945 
	C399.671204,390.541534 400.475220,392.880676 400.250122,395.812012 
	C400.063568,398.240936 398.744568,400.413391 396.508575,400.493317 
	C391.506714,400.672089 389.710938,403.404297 389.733582,407.756744 
	C388.954681,407.824951 388.445984,408.000702 388.332886,407.859558 
	C386.802826,405.949738 385.811951,391.819794 387.363068,390.195221 
	C389.777618,387.666199 392.920654,388.927002 396.226440,389.336945 
M393.373138,397.801544 
	C395.224518,397.637329 396.640839,396.955475 396.570251,394.801941 
	C396.517456,393.189941 395.436768,392.483002 393.967224,392.321960 
	C392.634888,392.175964 391.104034,391.986176 390.632965,393.653381 
	C390.115936,395.483368 389.940887,397.392578 393.373138,397.801544 
z"/>
<path fill="#000000" opacity="1.000000" stroke="none" 
	d="
M424.861908,391.221985 
	C426.935333,396.427216 426.018616,399.655121 421.650238,400.532257 
	C417.756317,401.314148 415.722321,402.758301 415.806183,406.817780 
	C415.814697,407.230835 414.966553,407.661591 414.520508,408.079926 
	C411.915619,406.775604 412.887665,404.524872 412.730133,402.697235 
	C412.573364,400.878052 412.690430,399.035034 412.691681,397.202484 
	C412.698059,387.888000 416.082245,386.098938 424.861908,391.221985 
M421.838837,396.583130 
	C422.986725,394.859680 422.674774,393.403107 420.797791,392.585571 
	C419.614716,392.070312 418.166595,391.846039 417.087646,392.862488 
	C416.014252,393.873779 415.972046,395.371033 416.621674,396.509766 
	C417.813110,398.598206 419.631531,397.849121 421.838837,396.583130 
z"/>
<path fill="#000000" opacity="1.000000" stroke="none" 
	d="
M442.050720,395.195770 
	C441.675537,399.772186 442.960815,404.095947 440.943085,408.269348 
	C437.289124,405.664032 436.754120,393.867737 439.713379,389.071411 
	C442.902924,389.967102 441.737946,392.672882 442.050720,395.195770 
z"/>
</svg>